# xmcd
#
# Track frame offsets:
#	150
#	17665
#	39230
#	52282
#	68567
#	84650
#	102975
#	119062
#	137137
#	156025
#	171885
#	184807
#
# Disc length: 2713 seconds
# Revision: 0
# Processed by: cddbd v1.5.2PL0 Copyright (c) Steve Scherf et al.
# Submitted via: dBpowerAMP V12.0
#
DISCID=a40a970c
DTITLE=Various Artist - Ain't That America: The Bluegrass Tribute to John Cougar Mellencamp
DYEAR=2000
DGENRE=Country
TTITLE0=Paper in Fire
TTITLE1=Cherry Bomb
TTITLE2=R.O.C.K. in the U.S.A.
TTITLE3=Small Town
TTITLE4=Rain on the Scarecrow
TTITLE5=Check It Out
TTITLE6=Authority Song
TTITLE7=Jack and Diane
TTITLE8=Pink Houses
TTITLE9=Lonely Ol' Night
TTITLE10=Hurts So Good
TTITLE11=Ain't Even Done With the Night
EXTD=
EXTT0=
EXTT1=
EXTT2=
EXTT3=
EXTT4=
EXTT5=
EXTT6=
EXTT7=
EXTT8=
EXTT9=
EXTT10=
EXTT11=
PLAYORDER=
